<?xml version="1.0" standalone="no"?>
<svg id="Frame" width="68" height="68" viewBox="0 0 68 68" fill="none" xmlns="http://www.w3.org/2000/svg" style="max-width: 100%; max-height: 100%;">
<path d="M22.6666 26.9166C22.6666 25.5965 22.6666 24.9364 22.8823 24.4157C23.1699 23.7214 23.7214 23.1699 24.4157 22.8823C24.9364 22.6666 25.5965 22.6666 26.9166 22.6666C28.2368 22.6666 28.8968 22.6666 29.4176 22.8823C30.1118 23.1699 30.6634 23.7214 30.951 24.4157C31.1666 24.9364 31.1666 25.5965 31.1666 26.9166V41.0833C31.1666 42.4033 31.1666 43.0635 30.951 43.5843C30.6634 44.2784 30.1118 44.8301 29.4176 45.1177C28.8968 45.3333 28.2368 45.3333 26.9166 45.3333C25.5965 45.3333 24.9364 45.3333 24.4157 45.1177C23.7214 44.8301 23.1699 44.2784 22.8823 43.5843C22.6666 43.0635 22.6666 42.4033 22.6666 41.0833V26.9166Z" stroke="black" stroke-width="1.5" stroke-dasharray="0,0,0,57.42940139770508"><animate attributeType="XML" attributeName="stroke-dasharray" repeatCount="1" dur="2.5s" values="0,0,0,57.42940139770508; 
          0,28.71470069885254,28.71470069885254,0; 
          57.42940139770508,0,0,0" keyTimes="0; 0.5; 1" fill="freeze"></animate></path>
<path d="M36.8333 26.9166C36.8333 25.5965 36.8333 24.9364 37.0489 24.4157C37.3365 23.7214 37.8881 23.1699 38.5823 22.8823C39.103 22.6666 39.7632 22.6666 41.0833 22.6666C42.4033 22.6666 43.0635 22.6666 43.5842 22.8823C44.2784 23.1699 44.8301 23.7214 45.1176 24.4157C45.3333 24.9364 45.3333 25.5965 45.3333 26.9166V41.0833C45.3333 42.4033 45.3333 43.0635 45.1176 43.5843C44.8301 44.2784 44.2784 44.8301 43.5842 45.1177C43.0635 45.3333 42.4033 45.3333 41.0833 45.3333C39.7632 45.3333 39.103 45.3333 38.5823 45.1177C37.8881 44.8301 37.3365 44.2784 37.0489 43.5843C36.8333 43.0635 36.8333 42.4033 36.8333 41.0833V26.9166Z" stroke="black" stroke-width="1.5" stroke-dasharray="0,0,0,57.429420471191406"><animate attributeType="XML" attributeName="stroke-dasharray" repeatCount="1" dur="2.5s" values="0,0,0,57.429420471191406; 
          0,28.714710235595703,28.714710235595703,0; 
          57.429420471191406,0,0,0" keyTimes="0; 0.5; 1" fill="freeze"></animate></path>
<path d="M19.8333 9.45712C24.0008 7.04637 28.8393 5.66663 34 5.66663C49.6479 5.66663 62.3333 18.3519 62.3333 34C62.3333 49.6479 49.6479 62.3333 34 62.3333C18.3519 62.3333 5.66663 49.6479 5.66663 34C5.66663 28.8393 7.04637 24.0008 9.45712 19.8333" stroke="black" stroke-width="1.5" stroke-linecap="round" stroke-dasharray="0,0,0,163.20684814453125"><animate attributeType="XML" attributeName="stroke-dasharray" repeatCount="1" dur="2.5s" values="0,0,0,163.20684814453125; 
          0,81.60342407226562,81.60342407226562,0; 
          163.20684814453125,0,0,0" keyTimes="0; 0.5; 1" fill="freeze"></animate></path>
</svg>