<?xml version="1.0" standalone="no"?>
<svg id="Frame" width="68" height="68" viewBox="0 0 68 68" fill="none" xmlns="http://www.w3.org/2000/svg" style="max-width: 100%; max-height: 100%;">
<path d="M62.3333 34C62.3333 41.8138 59.1702 48.8889 54.0549 54.0146M5.66663 34C5.66663 26.1658 8.84625 19.0742 13.9854 13.9453M54.2339 14.1667C56.6298 16.6105 58.5862 19.4864 59.9757 22.6667M14.1666 54.2342C11.588 51.7063 9.49044 48.6894 8.02421 45.3333" stroke="black" stroke-width="1.5" stroke-linecap="round" stroke-linejoin="round" stroke-dasharray="0,0,0,65.70738220214844"><animate attributeType="XML" attributeName="stroke-dasharray" repeatCount="1" dur="2.5s" values="0,0,0,65.70738220214844; 
          0,32.85369110107422,32.85369110107422,0; 
          65.70738220214844,0,0,0" keyTimes="0; 0.5; 1" fill="freeze"></animate></path>
<path d="M46.1406 22.7912C49.1464 25.6665 51 29.6049 51 33.9495C51 38.3457 49.1022 42.326 46.0329 45.2098M22.1 45.3333C18.9527 42.4402 17 38.4086 17 33.9495C17 29.542 18.9078 25.5522 21.9913 22.6666" stroke="black" stroke-width="1.5" stroke-linecap="round" stroke-linejoin="round" stroke-dasharray="0,0,0,50.70458984375"><animate attributeType="XML" attributeName="stroke-dasharray" repeatCount="1" dur="2.5s" values="0,0,0,50.70458984375; 
          0,25.352294921875,25.352294921875,0; 
          50.70458984375,0,0,0" keyTimes="0; 0.5; 1" fill="freeze"></animate></path>
<path d="M38.6928 29.6115C41.2309 31.4749 42.4999 32.4065 42.4999 34C42.4999 35.5935 41.2309 36.5251 38.6928 38.3886C37.9924 38.9028 37.2974 39.3873 36.6587 39.7908C36.0986 40.1449 35.4642 40.511 34.8071 40.8706C32.2753 42.2563 31.0091 42.9494 29.8737 42.1821C28.7381 41.4148 28.635 39.8089 28.4287 36.597C28.3704 35.6887 28.3333 34.7982 28.3333 34C28.3333 33.2019 28.3704 32.3113 28.4287 31.403C28.635 28.191 28.7381 26.5851 29.8737 25.8179C31.0091 25.0507 32.2753 25.7436 34.8071 27.1294C35.4642 27.4889 36.0986 27.8552 36.6587 28.2092C37.2974 28.6127 37.9924 29.0972 38.6928 29.6115Z" stroke="black" stroke-width="1.5" stroke-dasharray="0,0,0,49.10710144042969"><animate attributeType="XML" attributeName="stroke-dasharray" repeatCount="1" dur="2.5s" values="0,0,0,49.10710144042969; 
          0,24.553550720214844,24.553550720214844,0; 
          49.10710144042969,0,0,0" keyTimes="0; 0.5; 1" fill="freeze"></animate></path>
</svg>