<?xml version="1.0" standalone="no"?>
<svg id="Frame" width="68" height="68" viewBox="0 0 68 68" fill="none" xmlns="http://www.w3.org/2000/svg" style="max-width: 100%; max-height: 100%;">
<path d="M34 42.5C38.6944 42.5 42.5 38.6944 42.5 34C42.5 29.3056 38.6944 25.5 34 25.5C29.3056 25.5 25.5 29.3056 25.5 34C25.5 38.6944 29.3056 42.5 34 42.5Z" stroke="#1C274C" stroke-width="1.5" stroke-dasharray="0,0,0,53.41461181640625"><animate attributeType="XML" attributeName="stroke-dasharray" repeatCount="1" dur="2.6315789473684212s" values="0,0,0,53.41461181640625; 
          0,26.707305908203125,26.707305908203125,0; 
          53.41461181640625,0,0,0" keyTimes="0; 0.5; 1" fill="freeze"></animate></path>
<path d="M10.3735 30.1444C11.7124 30.9856 12.5739 32.4187 12.5739 33.9997C12.5738 35.581 11.7124 37.0141 10.3735 37.8553C9.4624 38.4276 8.87539 38.8852 8.45776 39.4295C7.54285 40.622 7.13907 42.1288 7.33525 43.6188C7.48236 44.7363 8.14244 45.8796 9.4626 48.1663C10.7828 50.4528 11.4429 51.5961 12.3371 52.2823C13.5294 53.1972 15.0364 53.601 16.5264 53.4049C17.2065 53.3154 17.8962 53.0357 18.8473 52.5331C20.2454 51.7941 21.9175 51.7647 23.2871 52.5555C24.6565 53.3462 25.4668 54.8088 25.5259 56.389C25.5661 57.4642 25.6688 58.2014 25.9314 58.8353C26.5065 60.2236 27.6097 61.3269 28.9981 61.9021C30.0396 62.3333 31.3597 62.3333 34 62.3333C36.6404 62.3333 37.9605 62.3333 39.002 61.9021C40.3903 61.3269 41.4936 60.2236 42.0688 58.8353C42.3312 58.2014 42.434 57.4642 42.4743 56.3892C42.5332 54.8088 43.3435 53.3462 44.7132 52.5555C46.0825 51.765 47.7545 51.7944 49.1524 52.5334C50.1039 53.036 50.7935 53.3156 51.4735 53.4052C52.9635 53.6015 54.4706 53.1975 55.6629 52.2826C56.5571 51.5967 57.2172 50.4531 58.5376 48.1666C59.1252 47.1486 59.5822 46.3573 59.9211 45.6937M57.6264 37.8556C56.2876 37.0143 55.4263 35.5812 55.426 34.0002C55.426 32.419 56.2876 30.9856 57.6264 30.1444C58.5376 29.572 59.1243 29.1144 59.542 28.5702C60.4569 27.3778 60.8606 25.8709 60.6645 24.3808C60.5175 23.2633 59.8573 22.12 58.537 19.8334C57.2169 17.5468 56.5568 16.4035 55.6626 15.7174C54.4703 14.8025 52.9633 14.3987 51.4732 14.5948C50.7932 14.6844 50.1036 14.9639 49.1524 15.4666C47.7542 16.2056 46.0822 16.2351 44.7129 15.4443C43.3435 14.6537 42.5332 13.1911 42.4743 11.611C42.434 10.5358 42.3312 9.79862 42.0688 9.16474C41.4936 7.77627 40.3903 6.67311 39.002 6.09797C37.9605 5.66663 36.6404 5.66663 34 5.66663C31.3597 5.66663 30.0396 5.66663 28.9981 6.09797C27.6097 6.67311 26.5065 7.77627 25.9314 9.16474C25.6688 9.79856 25.5661 10.5357 25.5259 11.6108C25.4668 13.191 24.6564 14.6537 23.2869 15.4443C21.9175 16.235 20.2456 16.2055 18.8475 15.4666C17.8963 14.9638 17.2066 14.6842 16.5264 14.5947C15.0364 14.3985 13.5295 14.8023 12.3371 15.7172C11.4429 16.4034 10.7828 17.5467 9.46263 19.8333C8.87491 20.8513 8.41801 21.6426 8.07894 22.306" stroke="#1C274C" stroke-width="1.5" stroke-linecap="round" stroke-dasharray="0,0,0,181.20057678222656"><animate attributeType="XML" attributeName="stroke-dasharray" repeatCount="1" dur="2.6315789473684212s" values="0,0,0,181.20057678222656; 
          0,90.60028839111328,90.60028839111328,0; 
          181.20057678222656,0,0,0" keyTimes="0; 0.5; 1" fill="freeze"></animate></path>
</svg>